<?xml version="1.0" standalone="no"?><!DOCTYPE svg PUBLIC "-//W3C//DTD SVG 1.1//EN" "http://www.w3.org/Graphics/SVG/1.1/DTD/svg11.dtd"><svg t="1562834898869" class="icon" viewBox="0 0 1024 1024" version="1.1" xmlns="http://www.w3.org/2000/svg" p-id="1507" width="48" height="48" xmlns:xlink="http://www.w3.org/1999/xlink"><defs><style type="text/css"></style></defs><path d="M511.997543 360.709126m-360.706669 0a360.706669 360.706669 0 1 0 721.413339 0 360.706669 360.706669 0 1 0-721.413339 0Z" fill="#2D4151" p-id="1508"></path><path d="M61.959953 633.043018h900.082551v390.954525H61.959953z" fill="#F9D585" p-id="1509"></path><path d="M183.194599 628.129461h223.699505v77.388521H183.194599zM598.515453 628.129461h260.877934v77.388521H598.515453z" fill="#DDB972" p-id="1510"></path><path d="M511.997543 360.709126m-272.336348 0a272.336348 272.336348 0 1 0 544.672697 0 272.336348 272.336348 0 1 0-544.672697 0Z" fill="#F9C032" p-id="1511"></path><path d="M525.531936 588.454945a18.642035 18.642035 0 0 1 15.83885-21.057048 18.642035 18.642035 0 0 1 21.057049 15.865876c1.437215 10.168606-5.670245 19.592808-15.838851 21.030023a17.28835 17.28835 0 0 1-2.633667 0.186715c-9.136759 0-17.121289-6.736487-18.423381-16.025566z m-48.902175 15.73321c-10.195631-1.46424-17.276066-10.91301-15.787259-21.108641 1.46424-10.168606 10.915467-17.249042 21.084073-15.787258 10.195631 1.46424 17.276066 10.915467 15.787258 21.111097a18.612554 18.612554 0 0 1-18.420925 15.971517c-0.881983 0-1.783621-0.054049-2.663147-0.186715z m112.525366-28.722197c-4.260054-9.370153-0.132666-20.418286 9.237487-24.67834 9.370153-4.260054 20.418286-0.132666 24.67834 9.237487 4.260054 9.370153 0.132666 20.418286-9.237487 24.67834v0.027024a18.954046 18.954046 0 0 1-7.721655 1.67798 18.622381 18.622381 0 0 1-16.956685-10.942491z m-179.7158 8.915649c-9.343128-4.284622-13.443492-15.359779-9.156414-24.702908 4.311646-9.370153 15.359779-13.470516 24.705365-9.156413a18.597813 18.597813 0 0 1 9.156413 24.702907c-3.115195 6.842128-9.876249 10.861418-16.932117 10.861418a18.796812 18.796812 0 0 1-7.773247-1.705004z m237.027528-39.372332c-6.709462-7.797815-5.854503-19.565784 1.916287-26.272788a18.634665 18.634665 0 0 1 26.299814 1.916287c6.73403 7.773247 5.85696 19.541216-1.916288 26.275245a18.563418 18.563418 0 0 1-12.165966 4.525386 18.654319 18.654319 0 0 1-14.133847-6.44413z m-295.832977 1.385623c-7.773247-6.73403-8.598725-18.499542-1.837671-26.272788a18.634665 18.634665 0 0 1 26.299814-1.837671c7.773247 6.761054 8.5717 18.526566 1.83767 26.299814a18.617467 18.617467 0 0 1-14.082254 6.387624 18.46269 18.46269 0 0 1-12.217559-4.576979z m342.310312-46.745123c-8.623292-5.564603-11.12675-17.116375-5.537579-25.742125 5.591628-8.652774 17.1434-11.12675 25.769149-5.535122a18.624837 18.624837 0 0 1 5.537579 25.766693 18.632208 18.632208 0 0 1-15.652135 8.520107 18.622381 18.622381 0 0 1-10.117014-3.009553z m-388.094836-6.176341a18.659232 18.659232 0 0 1 5.618653-25.766693 18.659232 18.659232 0 0 1 25.742124 5.616196c5.562146 8.677341 3.061146 20.204546-5.618652 25.742124a18.381616 18.381616 0 0 1-10.03594 2.982529 18.646948 18.646948 0 0 1-15.706185-8.574156z m419.959252-50.366415c-9.876249-2.92848-15.519469-13.283801-12.590989-23.160051 2.901455-9.876249 13.283801-15.519469 23.133026-12.590989 9.876249 2.901455 15.519469 13.283801 12.618014 23.133025-2.395359 8.119653-9.8222 13.362418-17.887804 13.362418a19.010552 19.010552 0 0 1-5.272247-0.744403z m-449.00083-13.362418c-2.874431-9.876249 2.795814-20.231571 12.669607-23.106002a18.597813 18.597813 0 0 1 23.106001 12.672064 18.632208 18.632208 0 0 1-12.672063 23.106001 18.575702 18.575702 0 0 1-5.218198 0.744404c-8.063147 0-15.517013-5.296814-17.885347-13.416467z m463.537589-49.911911c-10.301272-0.027025-18.634665-8.384985-18.60764-18.659233v-0.21374-0.240764a18.622381 18.622381 0 0 1 18.634664-18.634664 18.622381 18.622381 0 0 1 18.634665 18.634664v0.508553a18.632208 18.632208 0 0 1-18.634665 18.60764l-0.027024-0.002456z m-454.727581-0.746861a18.637121 18.637121 0 0 1-18.634665-18.634665c0.027025-10.301272 8.387442-18.634665 18.661689-18.634664 10.301272 0.027025 18.634665 8.35796 18.60764 18.659232a18.617467 18.617467 0 0 1-18.634664 18.610097z m427.734956-77.172325c-2.901455-9.876249 2.768789-20.231571 12.645038-23.133026a18.605183 18.605183 0 0 1 23.106002 12.645039 18.605183 18.605183 0 0 1-12.645039 23.106001 17.79936 17.79936 0 0 1-5.245222 0.771429c-8.038579 0.002457-15.489988-5.26979-17.860779-13.389443z m-423.769716 12.37725a18.629751 18.629751 0 0 1-12.618014-23.133026 18.629751 18.629751 0 0 1 23.133026-12.618014 18.629751 18.629751 0 0 1 12.618014 23.133026 18.659232 18.659232 0 0 1-17.863236 13.389442 17.95168 17.95168 0 0 1-5.26979-0.771428z m399.066808-66.389524c-5.564603-8.652774-3.061146-20.204546 5.589171-25.766693 8.652774-5.564603 20.177521-3.061146 25.769149 5.589171 5.562146 8.652774 3.061146 20.177521-5.591627 25.76915a18.578159 18.578159 0 0 1-10.062965 2.955504 18.651862 18.651862 0 0 1-15.703728-8.547132z m-376.943518 5.350863a18.595356 18.595356 0 0 1-5.562146-25.742124c5.589171-8.652774 17.116375-11.156231 25.766692-5.564604 8.652774 5.564603 11.12675 17.116375 5.537579 25.76915a18.629751 18.629751 0 0 1-15.652136 8.517651c-3.466514 0-6.977251-0.958144-10.089989-2.980073z m338.023234-50.260773a18.661689 18.661689 0 0 1-1.864695-26.299814 18.661689 18.661689 0 0 1 26.30227-1.862238 18.659232 18.659232 0 0 1 1.862238 26.299814 18.646948 18.646948 0 0 1-14.082254 6.417105 18.583072 18.583072 0 0 1-12.217559-4.554867z m-299.586935-2.048954a18.627294 18.627294 0 0 1 1.889263-26.272788 18.637121 18.637121 0 0 1 26.299813 1.889262c6.736487 7.773247 5.883984 19.538759-1.889263 26.275246a18.637121 18.637121 0 0 1-26.299813-1.89172z m249.647999-30.134844a18.644492 18.644492 0 0 1-9.183437-24.702907 18.639578 18.639578 0 0 1 24.702907-9.183438 18.629751 18.629751 0 0 1 9.183438 24.705364 18.642035 18.642035 0 0 1-16.956685 10.888442 18.755047 18.755047 0 0 1-7.746223-1.707461z m-198.082676-9.316104c-4.260054-9.343128-0.132666-20.418286 9.237487-24.675883 9.345585-4.284622 20.391261-0.159691 24.675883 9.210463 4.260054 9.370153 0.159691 20.418286-9.210463 24.675882a18.556048 18.556048 0 0 1-7.719197 1.705005 18.654319 18.654319 0 0 1-16.98371-10.915467z m141.139465-7.399817c-10.195631-1.46424-17.276066-10.915467-15.811826-21.084072 1.437215-10.195631 10.888442-17.276066 21.084073-15.814283 10.195631 1.437215 17.249042 10.888442 15.811826 21.084072-1.331574 9.289079-9.316104 15.998541-18.447949 15.998542a22.022562 22.022562 0 0 1-2.636124-0.184259z m-80.525827-15.865875a18.664146 18.664146 0 0 1 15.838851-21.084073 18.622381 18.622381 0 0 1 21.057048 15.838851 18.622381 18.622381 0 0 1-15.838851 21.057048h0.027025a18.634665 18.634665 0 0 1-21.084073-15.811826z" fill="#ED4C58" p-id="1512"></path><path d="M83.412542 561.796442h857.174916v56.046487H83.412542z" fill="#D34254" p-id="1513"></path><path d="M61.959953 644.213989h141.252477v379.783554H61.959953zM820.78757 644.213989h141.252477v379.783554H820.78757zM386.873817 644.213989h250.247453v379.783554h-250.247453z" fill="#F9C032" p-id="1514"></path><path d="M61.959953 960.995917h141.252477v63.001626H61.959953zM386.873817 960.995917h250.247453v63.001626h-250.247453zM820.78757 960.995917h141.252477v63.001626H820.78757zM61.959953 632.851389h141.252477v35.222833H61.959953zM386.873817 632.851389h250.247453v35.222833h-250.247453zM820.78757 632.851389h141.252477v35.222833H820.78757z" fill="#D8A745" p-id="1515"></path><path d="M217.181672 732.061016h157.05939v291.936527H217.181672z" fill="#D87F36" p-id="1516"></path><path d="M230.492498 745.371842h130.440195v138.424725H230.492498z" fill="#2D4151" p-id="1517"></path><path d="M650.424725 732.061016h157.05939v291.936527h-157.05939z" fill="#D87F36" p-id="1518"></path><path d="M230.492498 898.438967h130.440195v109.142383H230.492498z" fill="#ED9648" p-id="1519"></path><path d="M663.735551 745.371842h130.440195v138.424725h-130.440195z" fill="#2D4151" p-id="1520"></path><path d="M663.735551 898.438967h130.440195v109.142383h-130.440195z" fill="#ED9648" p-id="1521"></path><path d="M425.48209 684.144009h173.033363v234.25874h-173.033363z" fill="#FFFFFF" p-id="1522"></path><path d="M438.792916 697.454835h146.411712v207.639545h-146.411712z" fill="#2D4151" p-id="1523"></path><path d="M489.380441 802.604953m-33.274608 0a33.274607 33.274607 0 1 0 66.549215 0 33.274607 33.274607 0 1 0-66.549215 0Z" fill="#F9C032" p-id="1524"></path><path d="M512.741947 888.91158l-20.813827-77.685792 77.683335 20.816284z" fill="#ED4C58" p-id="1525"></path><path d="M535.300087 748.700777m-13.976613 0a13.976613 13.976613 0 1 0 27.953225 0 13.976613 13.976613 0 1 0-27.953225 0Z" fill="#3496F7" p-id="1526"></path><path d="M577.288887 710.861475v184.501605h-105.545659s92.615634-29.628748 105.545659-184.501605zM353.675369 756.115334v117.952391h-67.47542c0.002457 0 59.210818-18.941762 67.47542-117.952391zM783.596858 756.115334v117.952391h-67.47542s59.210818-18.941762 67.47542-117.952391z" fill="#FCFAFA" p-id="1527"></path><path d="M344.958719 935.708296m-11.979251 0a11.979252 11.979252 0 1 0 23.958503 0 11.979252 11.979252 0 1 0-23.958503 0Z" fill="#2D4151" p-id="1528"></path><path d="M679.043737 935.708296m-11.979251 0a11.979252 11.979252 0 1 0 23.958503 0 11.979252 11.979252 0 1 0-23.958503 0Z" fill="#2D4151" p-id="1529"></path><path d="M962.052331 330.505492v20.897357H61.964866v-20.897357c32.424562 0 58.724375-26.30227 58.724376-58.724376h782.611689c0 32.422105 26.30227 58.724375 58.7514 58.724376z" fill="#ED4C58" p-id="1530"></path><path d="M61.964866 330.505492H962.052331v31.065963H61.964866z" fill="#D34254" p-id="1531"></path><path d="M34.082887 598.96013h955.836682v45.253859H34.082887z" fill="#D89A2E" p-id="1532"></path><path d="M34.082887 351.390565h955.836682v223.611062H34.082887z" fill="#3496F7" p-id="1533"></path><path d="M60.702082 378.012217h902.595836v170.370215H60.702082z" fill="#2D4151" p-id="1534"></path><path d="M74.022735 543.058593c-0.530664 0-1.063785-0.054049-1.569882-0.15969a9.490535 9.490535 0 0 1-1.491264-0.452048 8.507824 8.507824 0 0 1-2.606642-1.732028 8.864057 8.864057 0 0 1-0.985168-1.223476 6.768425 6.768425 0 0 1-0.719836-1.356142 7.53494 7.53494 0 0 1-0.479072-1.491264 7.893629 7.893629 0 0 1-0.132666-1.569882c0-2.103002 0.852502-4.151956 2.316742-5.64322a7.075522 7.075522 0 0 1 1.223476-0.985168c0.427479-0.292357 0.904094-0.557689 1.383166-0.744404 0.479072-0.186715 0.985168-0.346406 1.491264-0.452047a7.647951 7.647951 0 0 1 3.115195 0c0.506096 0.105641 1.012193 0.265332 1.491265 0.452047s0.958144 0.452047 1.383166 0.744404c0.427479 0.265332 0.852502 0.611738 1.223476 0.985168 1.491265 1.491265 2.34131 3.540218 2.34131 5.64322 0 0.530664-0.054049 1.036761-0.159691 1.569882a9.490535 9.490535 0 0 1-0.452047 1.491264 8.421837 8.421837 0 0 1-0.744404 1.356142 7.25978 7.25978 0 0 1-2.208644 2.208644c-0.427479 0.294813-0.904094 0.533121-1.383166 0.74686-0.479072 0.186715-0.985168 0.346406-1.491265 0.452048s-1.041674 0.159691-1.545313 0.15969zM66.038205 499.133851a7.97716 7.97716 0 0 1 7.986987-7.986987 7.994357 7.994357 0 0 1 7.986986 7.986987 7.994357 7.994357 0 0 1-7.986986 7.986987 7.97716 7.97716 0 0 1-7.986987-7.986987z m0-35.937755a7.97716 7.97716 0 0 1 7.986987-7.986987 7.994357 7.994357 0 0 1 7.986986 7.986987 7.994357 7.994357 0 0 1-7.986986 7.986987 7.97716 7.97716 0 0 1-7.986987-7.986987z m0-35.937755a7.97716 7.97716 0 0 1 7.986987-7.986987 7.994357 7.994357 0 0 1 7.986986 7.986987 7.994357 7.994357 0 0 1-7.986986 7.986987 7.97716 7.97716 0 0 1-7.986987-7.986987zM74.022735 399.307572c-0.530664 0-1.063785-0.054049-1.569882-0.15969a9.490535 9.490535 0 0 1-1.491264-0.452047 8.507824 8.507824 0 0 1-2.606642-1.732029c-1.46424-1.488808-2.316742-3.540218-2.316742-5.64322s0.852502-4.151956 2.316742-5.643221a7.075522 7.075522 0 0 1 1.223476-0.985168 8.795267 8.795267 0 0 1 1.383166-0.744404c0.479072-0.186715 0.985168-0.346406 1.491264-0.452047a7.647951 7.647951 0 0 1 3.115195 0c0.506096 0.105641 1.012193 0.265332 1.491265 0.452047 0.479072 0.21374 0.958144 0.452047 1.383166 0.744404 0.427479 0.265332 0.852502 0.611738 1.223476 0.985168 1.491265 1.491265 2.34131 3.540218 2.34131 5.643221s-0.852502 4.151956-2.34131 5.64322a8.630663 8.630663 0 0 1-2.606642 1.732029 9.490535 9.490535 0 0 1-1.491265 0.452047 7.69463 7.69463 0 0 1-1.545313 0.15969zM906.973815 391.320586a7.97716 7.97716 0 0 1 7.986987-7.986987 7.969789 7.969789 0 0 1 7.959962 7.986987 7.974703 7.974703 0 0 1-15.946949 0z m-35.058228 0a7.994357 7.994357 0 0 1 7.986986-7.986987 7.97716 7.97716 0 0 1 7.986987 7.986987 7.97716 7.97716 0 0 1-7.986987 7.986986 7.994357 7.994357 0 0 1-7.986986-7.986986z m-35.031204 0a7.97716 7.97716 0 0 1 7.986986-7.986987 7.97716 7.97716 0 0 1 7.986987 7.986987 7.97716 7.97716 0 0 1-7.986987 7.986986 7.97716 7.97716 0 0 1-7.986986-7.986986z m-35.033661 0a7.97716 7.97716 0 0 1 7.986987-7.986987 7.994357 7.994357 0 0 1 7.986986 7.986987 7.994357 7.994357 0 0 1-7.986986 7.986986 7.97716 7.97716 0 0 1-7.986987-7.986986z m-35.033661 0a7.969789 7.969789 0 0 1 7.959962-7.986987 7.999271 7.999271 0 0 1 8.011555 7.986987 7.999271 7.999271 0 0 1-8.011555 7.986986 7.972246 7.972246 0 0 1-7.959962-7.986986z m-35.058228 0a7.994357 7.994357 0 0 1 7.986986-7.986987 7.97716 7.97716 0 0 1 7.986987 7.986987 7.97716 7.97716 0 0 1-7.986987 7.986986 7.994357 7.994357 0 0 1-7.986986-7.986986z m-35.033661 0a7.97716 7.97716 0 0 1 7.986987-7.986987 7.97716 7.97716 0 0 1 7.986986 7.986987 7.97716 7.97716 0 0 1-7.986986 7.986986 7.97716 7.97716 0 0 1-7.986987-7.986986z m-35.031204 0a7.97716 7.97716 0 0 1 7.986987-7.986987 7.994357 7.994357 0 0 1 7.986986 7.986987 7.994357 7.994357 0 0 1-7.986986 7.986986 7.97716 7.97716 0 0 1-7.986987-7.986986z m-35.031204 0a7.97716 7.97716 0 0 1 7.986987-7.986987 7.994357 7.994357 0 0 1 7.986986 7.986987 7.994357 7.994357 0 0 1-7.986986 7.986986 7.97716 7.97716 0 0 1-7.986987-7.986986z m-35.060685 0a7.994357 7.994357 0 0 1 7.986986-7.986987 7.97716 7.97716 0 0 1 7.986987 7.986987 7.97716 7.97716 0 0 1-7.986987 7.986986 7.994357 7.994357 0 0 1-7.986986-7.986986z m-35.031204 0a7.97716 7.97716 0 0 1 7.986986-7.986987 7.97716 7.97716 0 0 1 7.986987 7.986987 7.97716 7.97716 0 0 1-7.986987 7.986986 7.974703 7.974703 0 0 1-7.986986-7.986986z m-35.036118 0a7.97716 7.97716 0 0 1 7.986987-7.986987 7.97716 7.97716 0 0 1 7.986987 7.986987 7.97716 7.97716 0 0 1-7.986987 7.986986 7.97716 7.97716 0 0 1-7.986987-7.986986z m-35.031204 0a7.97716 7.97716 0 0 1 7.986987-7.986987 7.994357 7.994357 0 0 1 7.986987 7.986987 7.994357 7.994357 0 0 1-7.986987 7.986986 7.97716 7.97716 0 0 1-7.986987-7.986986z m-35.055772 0a7.9919 7.9919 0 0 1 7.986987-7.986987 7.97716 7.97716 0 0 1 7.986987 7.986987 7.97716 7.97716 0 0 1-7.986987 7.986986 7.989444 7.989444 0 0 1-7.986987-7.986986z m-35.036117 0a7.97716 7.97716 0 0 1 7.986987-7.986987 7.97716 7.97716 0 0 1 7.986986 7.986987 7.97716 7.97716 0 0 1-7.986986 7.986986 7.97716 7.97716 0 0 1-7.986987-7.986986z m-35.031204 0a7.97716 7.97716 0 0 1 7.986987-7.986987 7.994357 7.994357 0 0 1 7.986986 7.986987 7.994357 7.994357 0 0 1-7.986986 7.986986 7.97716 7.97716 0 0 1-7.986987-7.986986z m-35.028747 0a7.97716 7.97716 0 0 1 7.986987-7.986987 7.994357 7.994357 0 0 1 7.986986 7.986987 7.994357 7.994357 0 0 1-7.986986 7.986986 7.972246 7.972246 0 0 1-7.986987-7.986986z m-35.060686 0a7.994357 7.994357 0 0 1 7.986987-7.986987 7.97716 7.97716 0 0 1 7.986987 7.986987 7.97716 7.97716 0 0 1-7.986987 7.986986 7.994357 7.994357 0 0 1-7.986987-7.986986z m-35.031203 0a7.97716 7.97716 0 0 1 7.986986-7.986987 7.97716 7.97716 0 0 1 7.986987 7.986987 7.97716 7.97716 0 0 1-7.986987 7.986986 7.974703 7.974703 0 0 1-7.986986-7.986986z m-35.033661 0a7.97716 7.97716 0 0 1 7.986987-7.986987 7.97716 7.97716 0 0 1 7.986986 7.986987 7.97716 7.97716 0 0 1-7.986986 7.986986 7.97716 7.97716 0 0 1-7.986987-7.986986z m-35.033661 0a7.97716 7.97716 0 0 1 7.986987-7.986987 7.994357 7.994357 0 0 1 7.986987 7.986987 7.994357 7.994357 0 0 1-7.986987 7.986986 7.97716 7.97716 0 0 1-7.986987-7.986986z m-35.058229 0a7.994357 7.994357 0 0 1 7.986987-7.986987 7.97716 7.97716 0 0 1 7.986987 7.986987 7.97716 7.97716 0 0 1-7.986987 7.986986 7.994357 7.994357 0 0 1-7.986987-7.986986z m-35.03366 0a7.97716 7.97716 0 0 1 7.986987-7.986987 7.97716 7.97716 0 0 1 7.986986 7.986987 7.97716 7.97716 0 0 1-7.986986 7.986986 7.97716 7.97716 0 0 1-7.986987-7.986986z m-35.031204 0a7.97716 7.97716 0 0 1 7.986987-7.986987 7.994357 7.994357 0 0 1 7.986986 7.986987 7.994357 7.994357 0 0 1-7.986986 7.986986 7.97716 7.97716 0 0 1-7.986987-7.986986zM949.992006 399.307572a7.97716 7.97716 0 0 1-5.64322-2.343766c-1.491265-1.488808-2.34131-3.540218-2.34131-5.64322s0.852502-4.151956 2.34131-5.643221a7.962419 7.962419 0 0 1 7.188534-2.181619 7.468606 7.468606 0 0 1 2.87443 1.196451c0.452047 0.292357 0.852502 0.611738 1.223476 0.985168 1.491265 1.491265 2.34131 3.540218 2.34131 5.643221s-0.852502 4.151956-2.34131 5.64322a7.33594 7.33594 0 0 1-1.223476 0.985168c-0.427479 0.294813-0.879527 0.533121-1.358598 0.746861a9.861509 9.861509 0 0 1-1.515832 0.452047 7.674976 7.674976 0 0 1-1.545314 0.15969zM942.007476 499.133851a7.97716 7.97716 0 0 1 7.986987-7.986987 7.97716 7.97716 0 0 1 7.986986 7.986987 7.97716 7.97716 0 0 1-7.986986 7.986987 7.97716 7.97716 0 0 1-7.986987-7.986987z m0-35.937755a7.97716 7.97716 0 0 1 7.986987-7.986987 7.97716 7.97716 0 0 1 7.986986 7.986987 7.97716 7.97716 0 0 1-7.986986 7.986987 7.97716 7.97716 0 0 1-7.986987-7.986987z m0-35.937755a7.97716 7.97716 0 0 1 7.986987-7.986987 7.97716 7.97716 0 0 1 7.986986 7.986987 7.97716 7.97716 0 0 1-7.986986 7.986987 7.974703 7.974703 0 0 1-7.986987-7.986987zM949.992006 543.058593a7.97716 7.97716 0 0 1-5.64322-2.343766 8.016468 8.016468 0 0 1-2.34131-5.643221 8.149134 8.149134 0 0 1 0.611738-3.061145c0.186715-0.479072 0.452047-0.931119 0.719836-1.383167 0.292357-0.427479 0.638762-0.825478 1.012193-1.198908 2.955504-2.982529 8.306368-2.982529 11.28644 0 0.37343 0.37343 0.690355 0.771428 0.985168 1.198908 0.292357 0.452047 0.530664 0.904094 0.744404 1.383167a8.149134 8.149134 0 0 1 0.611738 3.061145 8.033666 8.033666 0 0 1-2.34131 5.643221 7.33594 7.33594 0 0 1-1.223476 0.985168c-0.427479 0.294813-0.879527 0.560145-1.358598 0.74686a7.561964 7.561964 0 0 1-1.515833 0.452048 7.716741 7.716741 0 0 1-1.54777 0.15969zM906.973815 535.071606a7.97716 7.97716 0 0 1 7.986987-7.986986 7.969789 7.969789 0 0 1 7.959962 7.986986 7.97716 7.97716 0 0 1-15.946949 0z m-35.058228 0a7.994357 7.994357 0 0 1 7.986986-7.986986 7.97716 7.97716 0 0 1 7.986987 7.986986 7.97716 7.97716 0 0 1-7.986987 7.986987 7.994357 7.994357 0 0 1-7.986986-7.986987z m-35.031204 0a7.97716 7.97716 0 0 1 7.986986-7.986986 7.97716 7.97716 0 0 1 7.986987 7.986986 7.97716 7.97716 0 0 1-7.986987 7.986987 7.97716 7.97716 0 0 1-7.986986-7.986987z m-35.033661 0a7.97716 7.97716 0 0 1 7.986987-7.986986 7.994357 7.994357 0 0 1 7.986986 7.986986 7.994357 7.994357 0 0 1-7.986986 7.986987 7.97716 7.97716 0 0 1-7.986987-7.986987z m-35.058229 0a7.994357 7.994357 0 0 1 7.986987-7.986986 7.999271 7.999271 0 0 1 8.011555 7.986986 7.999271 7.999271 0 0 1-8.011555 7.986987 7.994357 7.994357 0 0 1-7.986987-7.986987z m-35.03366 0a7.994357 7.994357 0 0 1 7.986986-7.986986 7.97716 7.97716 0 0 1 7.986987 7.986986 7.97716 7.97716 0 0 1-7.986987 7.986987 7.994357 7.994357 0 0 1-7.986986-7.986987z m-35.033661 0a7.97716 7.97716 0 0 1 7.986987-7.986986 7.97716 7.97716 0 0 1 7.986986 7.986986 7.97716 7.97716 0 0 1-7.986986 7.986987 7.979616 7.979616 0 0 1-7.986987-7.986987z m-35.031204 0a7.97716 7.97716 0 0 1 7.986987-7.986986 7.994357 7.994357 0 0 1 7.986986 7.986986 7.994357 7.994357 0 0 1-7.986986 7.986987 7.97716 7.97716 0 0 1-7.986987-7.986987z m-35.031204 0a7.97716 7.97716 0 0 1 7.986987-7.986986 7.969789 7.969789 0 0 1 7.959962 7.986986 7.972246 7.972246 0 0 1-7.959962 7.986987 7.97716 7.97716 0 0 1-7.986987-7.986987z m-35.060685 0a7.994357 7.994357 0 0 1 7.986986-7.986986 7.97716 7.97716 0 0 1 7.986987 7.986986 7.97716 7.97716 0 0 1-7.986987 7.986987 7.994357 7.994357 0 0 1-7.986986-7.986987z m-35.031204 0a7.97716 7.97716 0 0 1 7.986986-7.986986 7.97716 7.97716 0 0 1 7.986987 7.986986 7.97716 7.97716 0 0 1-7.986987 7.986987 7.97716 7.97716 0 0 1-7.986986-7.986987z m-35.036118 0a7.97716 7.97716 0 0 1 7.986987-7.986986 7.97716 7.97716 0 0 1 7.986987 7.986986 7.97716 7.97716 0 0 1-7.986987 7.986987 7.979616 7.979616 0 0 1-7.986987-7.986987z m-35.031204 0a7.97716 7.97716 0 0 1 7.986987-7.986986 7.994357 7.994357 0 0 1 7.986987 7.986986 7.994357 7.994357 0 0 1-7.986987 7.986987 7.979616 7.979616 0 0 1-7.986987-7.986987z m-35.055772 0a7.9919 7.9919 0 0 1 7.986987-7.986986 7.97716 7.97716 0 0 1 7.986987 7.986986 7.97716 7.97716 0 0 1-7.986987 7.986987 7.9919 7.9919 0 0 1-7.986987-7.986987z m-35.036117 0a7.97716 7.97716 0 0 1 7.986987-7.986986 7.97716 7.97716 0 0 1 7.986986 7.986986 7.97716 7.97716 0 0 1-7.986986 7.986987 7.979616 7.979616 0 0 1-7.986987-7.986987z m-35.031204 0a7.97716 7.97716 0 0 1 7.986987-7.986986 7.994357 7.994357 0 0 1 7.986986 7.986986 7.994357 7.994357 0 0 1-7.986986 7.986987 7.979616 7.979616 0 0 1-7.986987-7.986987z m-35.028747 0a7.97716 7.97716 0 0 1 7.986987-7.986986 7.994357 7.994357 0 0 1 7.986986 7.986986 7.994357 7.994357 0 0 1-7.986986 7.986987 7.974703 7.974703 0 0 1-7.986987-7.986987z m-35.060686 0a7.994357 7.994357 0 0 1 7.986987-7.986986 7.97716 7.97716 0 0 1 7.986987 7.986986 7.97716 7.97716 0 0 1-7.986987 7.986987 7.994357 7.994357 0 0 1-7.986987-7.986987z m-35.031203 0a7.97716 7.97716 0 0 1 7.986986-7.986986 7.97716 7.97716 0 0 1 7.986987 7.986986 7.97716 7.97716 0 0 1-7.986987 7.986987 7.97716 7.97716 0 0 1-7.986986-7.986987z m-35.033661 0a7.97716 7.97716 0 0 1 7.986987-7.986986 7.97716 7.97716 0 0 1 7.986986 7.986986 7.97716 7.97716 0 0 1-7.986986 7.986987 7.97716 7.97716 0 0 1-7.986987-7.986987z m-35.033661 0a7.97716 7.97716 0 0 1 7.986987-7.986986 7.994357 7.994357 0 0 1 7.986987 7.986986 7.994357 7.994357 0 0 1-7.986987 7.986987 7.979616 7.979616 0 0 1-7.986987-7.986987z m-35.058229 0a7.994357 7.994357 0 0 1 7.986987-7.986986 7.97716 7.97716 0 0 1 7.986987 7.986986 7.97716 7.97716 0 0 1-7.986987 7.986987 7.994357 7.994357 0 0 1-7.986987-7.986987z m-35.03366 0a7.97716 7.97716 0 0 1 7.986987-7.986986 7.97716 7.97716 0 0 1 7.986986 7.986986 7.97716 7.97716 0 0 1-7.986986 7.986987 7.97716 7.97716 0 0 1-7.986987-7.986987z m-35.031204 0a7.97716 7.97716 0 0 1 7.986987-7.986986 7.994357 7.994357 0 0 1 7.986986 7.986986 7.994357 7.994357 0 0 1-7.986986 7.986987 7.97716 7.97716 0 0 1-7.986987-7.986987z" fill="#ED4C58" p-id="1535"></path><path d="M236.226619 467.696914c0.584713 0 1.230846 0.599454 0.906551 1.60182-1.036761 3.100454-4.798088 31.414826-44.990984 31.414826-41.362322 0-51.668508-19.209551-51.668508-36.1171 0-16.806821 10.696813-38.917827 45.963868-38.917828 12.770334 0 20.614828 3.500909 27.292352 9.104821l0.454504-6.60382c0.063876-1.100637 0.51838-1.800819 0.842675-1.800819h21.199542c0.776342 0 1.230846 0.400455 1.230846 2.201274v28.51337c0 0.999909-0.194085 1.599363-0.972885 1.800819h-20.420742c-0.584713 0-0.712466 0-1.233303-0.901638-0.454504-0.899181-4.992174-13.404183-19.059687-13.404183-14.133846 0-17.050042 12.60573-17.050043 18.207185 0 4.40009 1.555141 19.307822 19.059688 19.307822 14.067513 0 20.356866-9.704275 22.042216-13.706367 0.260419-0.599454 0.64859-0.700182 1.233303-0.700182h15.170607zM254.35273 427.580179c0-1.302093 0.454504-1.901547 1.036761-1.901547h63.207996c0.584713 0 1.361055 0.198999 1.361055 0.901638v16.607822c0 0.999909-0.454504 1.400364-0.972884 1.400364h-14.716103v37.416736h14.716103c0.646133 0 0.972884 0.400455 0.972884 1.100637v15.90764c0 1.198908-0.130209 1.700091-0.972884 1.700091h-63.271873c-1.036761 0-1.361055-0.700182-1.361055-1.400364v-15.607913c0-1.400364 0.454504-1.901547 0.842675-1.901547h14.716103v-37.316008h-14.325475c-0.712466 0-1.233303-0.400455-1.233303-0.999909v-15.90764zM394.747792 425.678632c0.64859 0 1.361055 0.501183 2.009644 1.201365l33.321286 43.519373v-25.810914h-14.261598c-0.972884 0-1.491265-0.501183-1.491265-1.302093v-15.406457c0-1.201365 0.454504-2.201273 0.909008-2.201274h46.288163c1.16697 0 1.424932 1.501092 1.424931 2.501001v14.605548c0 1.302093-0.64859 1.800819-1.491264 1.800818h-13.809552v53.425104c0 1.700091-0.324295 2.7-1.16697 2.7h-39.932477c-0.454504 0-1.16697-0.100728-1.621473-0.700182l-36.497901-47.720465v29.51328h14.974065c0.778799 0 1.621474 0.501183 1.621473 1.501092v15.207458c0 1.501092-0.51838 2.201273-1.294722 2.201274h-47.261047c-0.64859 0-0.972884-0.700182-0.972884-1.999818v-15.106731c0-0.798453 0.324295-1.800819 1.621474-1.800818h14.067513v-37.21528h-14.522017c-0.454504 0-1.103094-0.299727-1.103094-1.800819v-15.607913c0-0.999909 0.64859-1.501092 1.621474-1.501092h57.567233v-0.002457zM587.774418 425.678632c1.16697 0 1.491265 0.700182 1.491264 2.201274v28.51337c0 0.999909-0.194085 1.700091-0.842675 1.700091h-22.300178c-0.454504 0-0.842675 0-0.842675-0.700182v-12.608187h-37.470785v9.505276h20.875247c0.64859 0 0.906551 0.198999 0.906551 0.999909v15.706185c0 0.80091-0.776342 0.999909-1.555141 0.999908h-20.226657v10.10473H565.798535v-12.205275c0-0.901638 0.194085-2.002274 1.233302-2.002275h23.727567c0.454504 0 0.712466 0.501183 0.712465 1.901547v29.51328c0 0.700182-0.260419 1.400364-1.491264 1.400363h-109.950663c-0.842675 0-1.619017 0.100728-1.619017-1.100637v-15.806912c0-0.899181 0.388171-1.700091 0.972884-1.700091h14.716103v-37.416736H479.319933c-0.51838 0-0.906551 0.198999-0.906551-0.999908v-17.109006c0-0.501183 0.646133-0.901638 1.619017-0.901637h107.744476v0.004913zM607.97405 500.71356c-0.64859 0-0.972884-0.700182-0.972884-1.999818v-14.907732c0-0.700182 0.324295-1.999818 1.619017-1.999817h14.067513v-37.21528H608.300802c-0.51838 0-1.233303-0.299727-1.233303-1.800819v-15.607913c0-0.999909 0.51838-1.501092 1.427388-1.501092h63.402082c1.297179 0 1.815559 0.999909 2.333939 1.702548l7.195904 15.207458 6.289353-15.406458c0.51838-0.80091 1.036761-1.501092 2.009645-1.501091h60.161591c0.776342 0 1.103094 0.700182 1.103093 1.702547v15.907641c0 0.999909-0.454504 1.302093-1.103093 1.302092h-14.003637v37.21528h14.325475c0.64859 0 1.297179 0.501183 1.297179 2.299545v15.106731c0 0.999909-0.64859 1.501092-1.621474 1.501091h-61.198351c-0.64859 0-1.297179-0.501183-1.297179-1.70009v-15.907641c0-0.798453 0.64859-1.299636 1.297179-1.299636h14.197722v-38.718828h-0.194085l-26.710095 56.424831c-0.454504 0.700182-1.100637 1.201365-1.945769 1.201364h-6.09281c-0.64859 0-1.297179-0.198999-1.751683-1.501091l-25.476793-55.125195h-0.127753v37.716463h14.003638c0.776342 0 1.103094 0.501183 1.103093 1.800818v15.907641c0 0.999909-0.972884 1.201365-1.751683 1.201364h-45.963868v-0.004913zM819.409318 500.71356c-0.972884 0-1.491265-0.901638-1.491265-1.901547v-14.608004c0-0.901638 0.390628-1.501092 1.036761-1.501092h10.957231l-3.825204-8.603638h-20.098904l-3.825204 8.603638h12.121745c0.712466 0 1.036761 0.599454 1.03676 1.198908v14.907731c0 1.198908-0.257962 1.901547-0.906551 1.901547h-44.084433c-1.491265 0-2.594358-0.198999-2.594358-1.599363v-15.308186c0-1.100637 0.324295-1.700091 1.297179-1.700091h13.288715l25.154955-54.324285c0.646133-1.501092 1.491265-2.103002 2.267606-2.103003h29.822834c1.294722 0 2.073521 1.100637 2.397816 2.103003l26.125382 55.324194h14.325475c1.103094 0 1.103094 1.800819 1.103093 3.30191v12.706458c0 1.198908-0.64859 1.599363-1.815559 1.599363h-62.294074v0.002457z m-9.269426-35.817373h11.539489l-5.05605-11.804821c-0.194085-0.299727-0.842675-0.299727-0.972885 0l-5.510554 11.804821z" fill="#F9C032" p-id="1536"></path></svg>